<svg version="1" xmlns="http://www.w3.org/2000/svg" width="54.667" height="54.667" viewBox="0 0 41.000000 41.000000"><path d="M0 20.5V41h41l-.1-8.8c-.1-7.8-.2-8.4-1.2-5.2-1.6 4.9-7.7 10.7-12.9 12.1-8.8 2.3-17.7-.9-22.6-8.4-2.1-3.2-2.7-5.2-2.7-10.1 0-9.9 4.1-15.9 13.4-19.2C18.3.2 18 .1 9.3 0H0v20.5z"/><path d="M15 5.7c-3.1 1.1-8.1 6.9-9.1 10.5C3 27.3 13.7 38 24.8 35.1c8.7-2.4 13.4-11.3 10.7-20.2-.9-3-4.2-6.7-7.7-8.5C25.1 5 18 4.6 15 5.7zm4.6 7c1.3 1.7 1.5 1.7 2.9-.1.8-1.1 1.8-1.7 2.1-1.3.4.4.1 1.3-.6 2.2-1.1 1.3-.8 1.5 1.9 1.5h3.2l-.3 6.2-.3 6.3h-15l-.3-6.3-.3-6.2h3.3c2.5 0 2.9-.3 2-1.2-1.3-1.3-1.6-2.8-.6-2.8.4 0 1.3.8 2 1.7z"/></svg>